ffmpeg started on 2025-06-20 at 17:30:10
Report written to "D:\Convert\FFMetrics\reports\ssim_report-6.txt"
Log level: 32
Command line:
ffmpeg -hide_banner -nostdin -i "G:\\\xc0\xed\xe8\xec\xe5\\[\xd2\xee\xef]\\\xc2\xee\xeb\xf7\xe8\xf6\xe0 \xe8 \xef\xf0\xff\xed\xee\xf1\xf2\xe8\\\xd2\xee\xf0\xe3\xee\xe2\xe5\xf6 \xe2\xf1\xf2\xf0\xe5\xf7\xe0\xe5\xf2 \xec\xf3\xe4\xf0\xf3\xfe \xe2\xee\xeb\xf7\xe8\xf6\xf3\\DC_Ookami_to_Koushinryou_Merchant_Meets_the_Wise_Wolf_22_Telegram_HEVC.mkv" -i "G:\\\xc0\xed\xe8\xec\xe5\\[\xd2\xee\xef]\\\xc2\xee\xeb\xf7\xe8\xf6\xe0 \xe8 \xef\xf0\xff\xed\xee\xf1\xf2\xe8\\\xd2\xee\xf0\xe3\xee\xe2\xe5\xf6 \xe2\xf1\xf2\xf0\xe5\xf7\xe0\xe5\xf2 \xec\xf3\xe4\xf0\xf3\xfe \xe2\xee\xeb\xf7\xe8\xf6\xf3\\DC_Ookami_to_Koushinryou_Merchant_Meets_the_Wise_Wolf_22_Telegram.mp4" -lavfi "[0:v]settb=AVTB,setpts=PTS-STARTPTS,format=pix_fmts=yuv420p10,fps=24000/1001,scale=1920:1080:flags=bicubic[main];[1:v]settb=AVTB,setpts=PTS-STARTPTS,format=pix_fmts=yuv420p,fps=24000/1001,scale=1920:1080:flags=bicubic[ref];[main][ref]ssim=eof_action=endall:stats_file='D\\:/Convert/FFMetrics/logs/ssim_logfile-6.txt'" -f null -
Input #0, matroska,webm, from 'G:\Аниме\[Топ]\Волчица и пряности\Торговец встречает мудрую волчицу\DC_Ookami_to_Koushinryou_Merchant_Meets_the_Wise_Wolf_22_Telegram_HEVC.mkv':
  Metadata:
    COMPATIBLE_BRANDS: isomiso2avc1mp41
    MAJOR_BRAND     : isom
    MINOR_VERSION   : 512
    ENCODER         : Lavf61.7.100
  Duration: 00:23:57.65, start: -0.021000, bitrate: 678 kb/s
  Stream #0:0: Video: hevc (Main 10), yuv420p10le(tv, bt709, progressive), 1920x1080 [SAR 1:1 DAR 16:9], 23.98 fps, 23.98 tbr, 1k tbn (default)
      Metadata:
        HANDLER_NAME    : VideoHandler
        VENDOR_ID       : [0][0][0][0]
        ENCODER         : Lavc61.19.100 libx265
        BPS             : 481497
        DURATION        : 00:23:56.559708333
        NUMBER_OF_FRAMES: 34443
        NUMBER_OF_BYTES : 86462480
        _STATISTICS_WRITING_APP: mkvpropedit v66.0.0 ('Josie') 64-bit
        _STATISTICS_WRITING_DATE_UTC: 2025-06-20 12:51:16
        _STATISTICS_TAGS: BPS DURATION NUMBER_OF_FRAMES NUMBER_OF_BYTES
  Stream #0:1: Audio: aac (LC), 48000 Hz, stereo, fltp (default)
      Metadata:
        HANDLER_NAME    : SoundHandler
        VENDOR_ID       : [0][0][0][0]
        ENCODER         : Lavc61.19.100 aac
        BPS             : 193387
        DURATION        : 00:23:57.653000000
        NUMBER_OF_FRAMES: 67391
        NUMBER_OF_BYTES : 34753069
        _STATISTICS_WRITING_APP: mkvpropedit v66.0.0 ('Josie') 64-bit
        _STATISTICS_WRITING_DATE_UTC: 2025-06-20 12:51:16
        _STATISTICS_TAGS: BPS DURATION NUMBER_OF_FRAMES NUMBER_OF_BYTES
Input #1, mov,mp4,m4a,3gp,3g2,mj2, from 'G:\Аниме\[Топ]\Волчица и пряности\Торговец встречает мудрую волчицу\DC_Ookami_to_Koushinryou_Merchant_Meets_the_Wise_Wolf_22_Telegram.mp4':
  Metadata:
    major_brand     : isom
    minor_version   : 512
    compatible_brands: isomiso2avc1mp41
    encoder         : Lavf61.1.100
  Duration: 00:23:57.63, start: 0.000000, bitrate: 3074 kb/s
  Stream #1:0[0x1](und): Video: h264 (High) (avc1 / 0x31637661), yuv420p(tv, bt709, progressive), 1920x1080 [SAR 1:1 DAR 16:9], 2928 kb/s, 23.98 fps, 23.98 tbr, 24k tbn (default)
      Metadata:
        handler_name    : VideoHandler
        vendor_id       : [0][0][0][0]
        encoder         : Lavc61.3.100 h264_qsv
  Stream #1:1[0x2](und): Audio: aac (HE-AACv2) (mp4a / 0x6134706D), 48000 Hz, stereo, fltp, 144 kb/s (default)
      Metadata:
        handler_name    : SoundHandler
        vendor_id       : [0][0][0][0]
Stream mapping:
  Stream #0:0 (hevc) -> settb:default
  Stream #1:0 (h264) -> settb:default
  ssim:default -> Stream #0:0 (wrapped_avframe)
  Stream #0:1 -> #0:1 (aac (native) -> pcm_s16le (native))
Output #0, null, to 'pipe:':
  Metadata:
    COMPATIBLE_BRANDS: isomiso2avc1mp41
    MAJOR_BRAND     : isom
    MINOR_VERSION   : 512
    encoder         : Lavf61.7.100
  Stream #0:0: Video: wrapped_avframe, yuv420p10le(tv, bt709, progressive), 1920x1080 [SAR 1:1 DAR 16:9], q=2-31, 200 kb/s, 23.98 fps, 23.98 tbn
      Metadata:
        encoder         : Lavc61.19.100 wrapped_avframe
  Stream #0:1: Audio: pcm_s16le, 48000 Hz, stereo, s16, 1536 kb/s (default)
      Metadata:
        HANDLER_NAME    : SoundHandler
        VENDOR_ID       : [0][0][0][0]
        _STATISTICS_TAGS: BPS DURATION NUMBER_OF_FRAMES NUMBER_OF_BYTES
        BPS             : 193387
        DURATION        : 00:23:57.653000000
        NUMBER_OF_FRAMES: 67391
        NUMBER_OF_BYTES : 34753069
        _STATISTICS_WRITING_APP: mkvpropedit v66.0.0 ('Josie') 64-bit
        _STATISTICS_WRITING_DATE_UTC: 2025-06-20 12:51:16
        encoder         : Lavc61.19.100 pcm_s16le
frame=  183 fps=0.0 q=-0.0 size=N/A time=00:00:07.63 bitrate=N/A speed=14.6x    frame=  471 fps=456 q=-0.0 size=N/A time=00:00:19.64 bitrate=N/A speed=  19x    frame=  764 fps=495 q=-0.0 size=N/A time=00:00:31.86 bitrate=N/A speed=20.6x    frame= 1024 fps=496 q=-0.0 size=N/A time=00:00:42.70 bitrate=N/A speed=20.7x    frame= 1223 fps=472 q=-0.0 size=N/A time=00:00:51.00 bitrate=N/A speed=19.7x    frame= 1410 fps=455 q=-0.0 size=N/A time=00:00:58.80 bitrate=N/A speed=  19x    frame= 1622 fps=449 q=-0.0 size=N/A time=00:01:07.65 bitrate=N/A speed=18.7x    frame= 1832 fps=444 q=-0.0 size=N/A time=00:01:16.40 bitrate=N/A speed=18.5x    frame= 2047 fps=440 q=-0.0 size=N/A time=00:01:25.37 bitrate=N/A speed=18.4x    frame= 2237 fps=434 q=-0.0 size=N/A time=00:01:33.30 bitrate=N/A speed=18.1x    frame= 2432 fps=428 q=-0.0 size=N/A time=00:01:41.43 bitrate=N/A speed=17.8x    frame= 2665 fps=430 q=-0.0 size=N/A time=00:01:51.15 bitrate=N/A speed=17.9x    frame= 2858 fps=426 q=-0.0 size=N/A time=00:01:59.20 bitrate=N/A speed=17.8x    frame= 3039 fps=421 q=-0.0 size=N/A time=00:02:06.75 bitrate=N/A speed=17.6x    frame= 3262 fps=421 q=-0.0 size=N/A time=00:02:16.05 bitrate=N/A speed=17.6x    frame= 3538 fps=429 q=-0.0 size=N/A time=00:02:27.56 bitrate=N/A speed=17.9x    frame= 3822 fps=436 q=-0.0 size=N/A time=00:02:39.40 bitrate=N/A speed=18.2x    frame= 4102 fps=442 q=-0.0 size=N/A time=00:02:51.08 bitrate=N/A speed=18.4x    frame= 4387 fps=447 q=-0.0 size=N/A time=00:03:02.97 bitrate=N/A speed=18.7x    frame= 4675 fps=453 q=-0.0 size=N/A time=00:03:14.98 bitrate=N/A speed=18.9x    frame= 4935 fps=456 q=-0.0 size=N/A time=00:03:25.83 bitrate=N/A speed=  19x    frame= 5217 fps=460 q=-0.0 size=N/A time=00:03:37.59 bitrate=N/A speed=19.2x    frame= 5498 fps=463 q=-0.0 size=N/A time=00:03:49.31 bitrate=N/A speed=19.3x    frame= 5778 fps=467 q=-0.0 size=N/A time=00:04:00.99 bitrate=N/A speed=19.5x    frame= 6040 fps=469 q=-0.0 size=N/A time=00:04:11.91 bitrate=N/A speed=19.5x    frame= 6308 fps=470 q=-0.0 size=N/A time=00:04:23.09 bitrate=N/A speed=19.6x    frame= 6569 fps=472 q=-0.0 size=N/A time=00:04:33.98 bitrate=N/A speed=19.7x    frame= 6838 fps=474 q=-0.0 size=N/A time=00:04:45.20 bitrate=N/A speed=19.8x    frame= 7130 fps=477 q=-0.0 size=N/A time=00:04:57.38 bitrate=N/A speed=19.9x    frame= 7412 fps=479 q=-0.0 size=N/A time=00:05:09.14 bitrate=N/A speed=  20x    frame= 7686 fps=481 q=-0.0 size=N/A time=00:05:20.57 bitrate=N/A speed=20.1x    frame= 7959 fps=482 q=-0.0 size=N/A time=00:05:31.95 bitrate=N/A speed=20.1x    frame= 8258 fps=485 q=-0.0 size=N/A time=00:05:44.42 bitrate=N/A speed=20.2x    frame= 8546 fps=487 q=-0.0 size=N/A time=00:05:56.43 bitrate=N/A speed=20.3x    frame= 8842 fps=490 q=-0.0 size=N/A time=00:06:08.78 bitrate=N/A speed=20.4x    frame= 9114 fps=491 q=-0.0 size=N/A time=00:06:20.12 bitrate=N/A speed=20.5x    frame= 9360 fps=491 q=-0.0 size=N/A time=00:06:30.39 bitrate=N/A speed=20.5x    frame= 9633 fps=491 q=-0.0 size=N/A time=00:06:41.77 bitrate=N/A speed=20.5x    frame= 9926 fps=493 q=-0.0 size=N/A time=00:06:53.99 bitrate=N/A speed=20.6x    frame=10196 fps=494 q=-0.0 size=N/A time=00:07:05.25 bitrate=N/A speed=20.6x    frame=10459 fps=494 q=-0.0 size=N/A time=00:07:16.22 bitrate=N/A speed=20.6x    frame=10728 fps=495 q=-0.0 size=N/A time=00:07:27.44 bitrate=N/A speed=20.6x    frame=11005 fps=496 q=-0.0 size=N/A time=00:07:39.00 bitrate=N/A speed=20.7x    frame=11286 fps=497 q=-0.0 size=N/A time=00:07:50.72 bitrate=N/A speed=20.7x    frame=11575 fps=498 q=-0.0 size=N/A time=00:08:02.77 bitrate=N/A speed=20.8x    frame=11850 fps=499 q=-0.0 size=N/A time=00:08:14.24 bitrate=N/A speed=20.8x    frame=12138 fps=500 q=-0.0 size=N/A time=00:08:26.25 bitrate=N/A speed=20.9x    frame=12426 fps=502 q=-0.0 size=N/A time=00:08:38.26 bitrate=N/A speed=20.9x    frame=12713 fps=503 q=-0.0 size=N/A time=00:08:50.23 bitrate=N/A speed=  21x    frame=13002 fps=504 q=-0.0 size=N/A time=00:09:02.29 bitrate=N/A speed=  21x    frame=13281 fps=505 q=-0.0 size=N/A time=00:09:13.92 bitrate=N/A speed=  21x    frame=13555 fps=505 q=-0.0 size=N/A time=00:09:25.35 bitrate=N/A speed=21.1x    frame=13848 fps=507 q=-0.0 size=N/A time=00:09:37.57 bitrate=N/A speed=21.1x    frame=14140 fps=507 q=-0.0 size=N/A time=00:09:49.75 bitrate=N/A speed=21.2x    frame=14426 fps=508 q=-0.0 size=N/A time=00:10:01.68 bitrate=N/A speed=21.2x    frame=14726 fps=510 q=-0.0 size=N/A time=00:10:14.19 bitrate=N/A speed=21.3x    frame=15014 fps=510 q=-0.0 size=N/A time=00:10:26.20 bitrate=N/A speed=21.3x    frame=15262 fps=510 q=-0.0 size=N/A time=00:10:36.55 bitrate=N/A speed=21.3x    frame=15505 fps=509 q=-0.0 size=N/A time=00:10:46.68 bitrate=N/A speed=21.2x    frame=15776 fps=510 q=-0.0 size=N/A time=00:10:57.99 bitrate=N/A speed=21.3x    frame=16048 fps=510 q=-0.0 size=N/A time=00:11:09.33 bitrate=N/A speed=21.3x    frame=16330 fps=510 q=-0.0 size=N/A time=00:11:21.09 bitrate=N/A speed=21.3x    frame=16607 fps=511 q=-0.0 size=N/A time=00:11:32.65 bitrate=N/A speed=21.3x    frame=16883 fps=511 q=-0.0 size=N/A time=00:11:44.16 bitrate=N/A speed=21.3x    frame=17153 fps=512 q=-0.0 size=N/A time=00:11:55.42 bitrate=N/A speed=21.3x    frame=17450 fps=512 q=-0.0 size=N/A time=00:12:07.81 bitrate=N/A speed=21.4x    frame=17718 fps=513 q=-0.0 size=N/A time=00:12:18.98 bitrate=N/A speed=21.4x    frame=17983 fps=513 q=-0.0 size=N/A time=00:12:30.04 bitrate=N/A speed=21.4x    frame=18248 fps=513 q=-0.0 size=N/A time=00:12:41.09 bitrate=N/A speed=21.4x    frame=18510 fps=513 q=-0.0 size=N/A time=00:12:52.02 bitrate=N/A speed=21.4x    frame=18787 fps=513 q=-0.0 size=N/A time=00:13:03.57 bitrate=N/A speed=21.4x    frame=19078 fps=514 q=-0.0 size=N/A time=00:13:15.71 bitrate=N/A speed=21.4x    frame=19337 fps=513 q=-0.0 size=N/A time=00:13:26.51 bitrate=N/A speed=21.4x    frame=19616 fps=514 q=-0.0 size=N/A time=00:13:38.15 bitrate=N/A speed=21.4x    frame=19889 fps=514 q=-0.0 size=N/A time=00:13:49.53 bitrate=N/A speed=21.4x    frame=20167 fps=514 q=-0.0 size=N/A time=00:14:01.13 bitrate=N/A speed=21.5x    frame=20445 fps=515 q=-0.0 size=N/A time=00:14:12.72 bitrate=N/A speed=21.5x    frame=20707 fps=515 q=-0.0 size=N/A time=00:14:23.65 bitrate=N/A speed=21.5x    frame=20974 fps=515 q=-0.0 size=N/A time=00:14:34.79 bitrate=N/A speed=21.5x    frame=21251 fps=515 q=-0.0 size=N/A time=00:14:46.34 bitrate=N/A speed=21.5x    frame=21536 fps=515 q=-0.0 size=N/A time=00:14:58.23 bitrate=N/A speed=21.5x    frame=21818 fps=516 q=-0.0 size=N/A time=00:15:10.03 bitrate=N/A speed=21.5x    frame=22098 fps=516 q=-0.0 size=N/A time=00:15:21.67 bitrate=N/A speed=21.5x    frame=22377 fps=516 q=-0.0 size=N/A time=00:15:33.30 bitrate=N/A speed=21.5x    frame=22658 fps=517 q=-0.0 size=N/A time=00:15:45.02 bitrate=N/A speed=21.6x    frame=22937 fps=517 q=-0.0 size=N/A time=00:15:56.66 bitrate=N/A speed=21.6x    frame=23218 fps=517 q=-0.0 size=N/A time=00:16:08.38 bitrate=N/A speed=21.6x    frame=23507 fps=518 q=-0.0 size=N/A time=00:16:20.43 bitrate=N/A speed=21.6x    frame=23804 fps=518 q=-0.0 size=N/A time=00:16:32.82 bitrate=N/A speed=21.6x    frame=24079 fps=519 q=-0.0 size=N/A time=00:16:44.29 bitrate=N/A speed=21.6x    frame=24365 fps=519 q=-0.0 size=N/A time=00:16:56.22 bitrate=N/A speed=21.6x    frame=24642 fps=519 q=-0.0 size=N/A time=00:17:07.77 bitrate=N/A speed=21.7x    frame=24925 fps=520 q=-0.0 size=N/A time=00:17:19.58 bitrate=N/A speed=21.7x    frame=25223 fps=520 q=-0.0 size=N/A time=00:17:32.00 bitrate=N/A speed=21.7x    frame=25513 fps=521 q=-0.0 size=N/A time=00:17:44.10 bitrate=N/A speed=21.7x    frame=25783 fps=521 q=-0.0 size=N/A time=00:17:55.36 bitrate=N/A speed=21.7x    frame=26058 fps=521 q=-0.0 size=N/A time=00:18:06.83 bitrate=N/A speed=21.7x    frame=26345 fps=521 q=-0.0 size=N/A time=00:18:18.80 bitrate=N/A speed=21.7x    frame=26592 fps=521 q=-0.0 size=N/A time=00:18:29.10 bitrate=N/A speed=21.7x    frame=26862 fps=521 q=-0.0 size=N/A time=00:18:40.36 bitrate=N/A speed=21.7x    frame=27128 fps=521 q=-0.0 size=N/A time=00:18:51.46 bitrate=N/A speed=21.7x    frame=27384 fps=521 q=-0.0 size=N/A time=00:19:02.14 bitrate=N/A speed=21.7x    frame=27644 fps=520 q=-0.0 size=N/A time=00:19:12.98 bitrate=N/A speed=21.7x    frame=27917 fps=520 q=-0.0 size=N/A time=00:19:24.37 bitrate=N/A speed=21.7x    frame=28198 fps=521 q=-0.0 size=N/A time=00:19:36.09 bitrate=N/A speed=21.7x    frame=28447 fps=520 q=-0.0 size=N/A time=00:19:46.47 bitrate=N/A speed=21.7x    frame=28720 fps=520 q=-0.0 size=N/A time=00:19:57.86 bitrate=N/A speed=21.7x    frame=29003 fps=521 q=-0.0 size=N/A time=00:20:09.66 bitrate=N/A speed=21.7x    frame=29284 fps=521 q=-0.0 size=N/A time=00:20:21.38 bitrate=N/A speed=21.7x    frame=29551 fps=521 q=-0.0 size=N/A time=00:20:32.52 bitrate=N/A speed=21.7x    frame=29824 fps=521 q=-0.0 size=N/A time=00:20:43.90 bitrate=N/A speed=21.7x    frame=30112 fps=521 q=-0.0 size=N/A time=00:20:55.92 bitrate=N/A speed=21.7x    frame=30401 fps=522 q=-0.0 size=N/A time=00:21:07.97 bitrate=N/A speed=21.8x    frame=30667 fps=522 q=-0.0 size=N/A time=00:21:19.06 bitrate=N/A speed=21.8x    frame=30967 fps=522 q=-0.0 size=N/A time=00:21:31.58 bitrate=N/A speed=21.8x    frame=31243 fps=522 q=-0.0 size=N/A time=00:21:43.09 bitrate=N/A speed=21.8x    frame=31513 fps=522 q=-0.0 size=N/A time=00:21:54.35 bitrate=N/A speed=21.8x    frame=31788 fps=522 q=-0.0 size=N/A time=00:22:05.82 bitrate=N/A speed=21.8x    frame=32075 fps=522 q=-0.0 size=N/A time=00:22:17.79 bitrate=N/A speed=21.8x    frame=32271 fps=521 q=-0.0 size=N/A time=00:22:25.96 bitrate=N/A speed=21.7x    frame=32415 fps=519 q=-0.0 size=N/A time=00:22:31.97 bitrate=N/A speed=21.7x    frame=32675 fps=519 q=-0.0 size=N/A time=00:22:42.81 bitrate=N/A speed=21.7x    frame=32929 fps=519 q=-0.0 size=N/A time=00:22:53.41 bitrate=N/A speed=21.6x    frame=33156 fps=518 q=-0.0 size=N/A time=00:23:02.88 bitrate=N/A speed=21.6x    frame=33355 fps=517 q=-0.0 size=N/A time=00:23:11.18 bitrate=N/A speed=21.6x    frame=33567 fps=516 q=-0.0 size=N/A time=00:23:20.02 bitrate=N/A speed=21.5x    frame=33826 fps=516 q=-0.0 size=N/A time=00:23:30.82 bitrate=N/A speed=21.5x    frame=34080 fps=516 q=-0.0 size=N/A time=00:23:41.42 bitrate=N/A speed=21.5x    frame=34252 fps=515 q=-0.0 size=N/A time=00:23:48.59 bitrate=N/A speed=21.5x    [Parsed_ssim_10 @ 000002547cb84e00] SSIM Y:0.995045 (23.049302) U:0.995202 (23.189169) V:0.995203 (23.190318) All:0.995097 (23.095613)
[out#0/null @ 000002547bbe54c0] video:14800KiB audio:269564KiB subtitle:0KiB other streams:0KiB global headers:0KiB muxing overhead: unknown
frame=34443 fps=514 q=-0.0 Lsize=N/A time=00:23:56.56 bitrate=N/A speed=21.4x    
